<svg width="198" height="265" viewBox="0 0 198 265" fill="none" xmlns="http://www.w3.org/2000/svg">
<path d="M98.56 0.230213C44.16 0.230213 0.069974 44.3302 0.069974 98.7202C0.039974 97.6602 0.069974 99.7802 0.069974 98.7202L0.139974 231.5C0.669974 249.78 15.65 264.44 34.06 264.44C52.47 264.44 67.59 249.78 68.12 231.5V196.57H98.55C152.95 196.57 197.05 153.11 197.05 98.7102C197.05 44.3102 152.95 0.220215 98.56 0.220215V0.230213ZM68.14 128.58V98.7202C68.14 81.9802 81.82 68.4102 98.56 68.4102C115.3 68.4102 128.87 81.9802 128.87 98.7202C128.87 115.46 115.3 128.58 98.56 128.58L68.12 128.6L68.14 128.58Z" fill="#E72264"/>
<path opacity="0.15" d="M33.24 196.58H68.1V231.51H67.94C67.41 249.79 52.44 264.45 34.04 264.45C15.64 264.45 0.659982 249.79 0.129982 231.51H0.119987V231.07C0.119987 230.89 0.109985 230.7 0.109985 230.52C0.109985 230.34 0.119987 230.16 0.119987 229.98V227.52C1.15999 211.17 16.6 196.59 33.23 196.59L33.24 196.58Z" fill="#1D1D1B"/>
<g opacity="0.75">
<g opacity="0.05">
<path opacity="0.5" d="M0.169922 154.57V196.57C0.169922 159.57 31.2599 129.12 68.1599 128.61V115.22C40.7199 118.11 16.4399 132.87 0.169922 154.58V154.57Z" fill="black"/>
<path d="M0.219971 228.17C8.22997 222.29 17.95 218.83 28.45 218.83H68.17V196.57H34.14C16.16 196.57 1.46997 210.52 0.219971 228.17Z" fill="black"/>
</g>
<g opacity="0.05">
<path opacity="0.5" d="M68.1699 128.61V116.44C40.5099 119.15 16.0999 134.24 0.179932 156.4V196.57C0.179932 159.57 31.2699 129.12 68.1699 128.61Z" fill="black"/>
<path d="M34.14 196.57C16.65 196.57 2.25998 209.77 0.349976 226.76C8.34998 220.51 18.24 216.81 28.97 216.81H68.17V196.57H34.14Z" fill="black"/>
</g>
<g opacity="0.05">
<path opacity="0.5" d="M68.1699 128.61V117.67C40.2599 120.2 15.6999 135.66 0.179932 158.31V196.57C0.179932 159.57 31.2699 129.12 68.1699 128.61Z" fill="black"/>
<path d="M34.1399 196.57C17.1399 196.57 3.06992 209.04 0.539917 225.33C8.49992 218.73 18.5499 214.78 29.4899 214.78H68.1699V196.57H34.1399Z" fill="black"/>
</g>
<g opacity="0.05">
<path opacity="0.5" d="M68.1699 128.61V118.9C39.9699 121.23 15.2399 137.11 0.179932 160.32V196.58C0.179932 159.58 31.2699 129.13 68.1699 128.62V128.61Z" fill="black"/>
<path d="M34.1399 196.57C17.6299 196.57 3.86991 208.34 0.779907 223.94C8.66991 216.97 18.8599 212.76 29.9999 212.76H68.1599V196.57H34.1299H34.1399Z" fill="black"/>
</g>
<g opacity="0.05">
<path opacity="0.5" d="M68.1699 128.61V120.14C39.6399 122.26 14.7199 138.63 0.179932 162.45V196.58C0.179932 159.58 31.2699 129.13 68.1699 128.62V128.61Z" fill="black"/>
<path d="M34.14 196.57C18.12 196.57 4.70997 207.64 1.08997 222.54C8.87997 215.21 19.19 210.73 30.52 210.73H68.17V196.56H34.14V196.57Z" fill="black"/>
</g>
<g opacity="0.05">
<path opacity="0.5" d="M68.1699 128.61V121.38C39.2699 123.27 14.1099 140.21 0.179932 164.71V196.57C0.179932 159.57 31.2699 129.12 68.1699 128.61Z" fill="black"/>
<path d="M34.14 196.57C18.63 196.57 5.55997 206.95 1.46997 221.14C9.11997 213.45 19.54 208.71 31.04 208.71H68.17V196.57H34.14Z" fill="black"/>
</g>
<g opacity="0.05">
<path opacity="0.5" d="M68.1699 128.61V122.63C38.8199 124.28 13.3799 141.89 0.179932 167.19V196.57C0.179932 159.57 31.2699 129.12 68.1699 128.61Z" fill="black"/>
<path d="M34.1399 196.57C19.1499 196.57 6.43991 206.27 1.90991 219.74C9.38991 211.7 19.8999 206.69 31.5599 206.69H68.1699V196.57H34.1399Z" fill="black"/>
</g>
<g opacity="0.05">
<path opacity="0.5" d="M68.1699 128.61V123.89C38.2799 125.27 12.4899 143.71 0.179932 169.94V196.57C0.179932 159.57 31.2699 129.12 68.1699 128.61Z" fill="black"/>
<path d="M34.1399 196.57C19.6599 196.57 7.3099 205.62 2.3999 218.37C9.6699 209.97 20.2599 204.67 32.0699 204.67H68.1599V196.57H34.1299H34.1399Z" fill="black"/>
</g>
<g opacity="0.05">
<path opacity="0.5" d="M68.1699 128.61V125.17C37.5999 126.27 11.3699 145.75 0.179932 173.13V196.57C0.179932 159.57 31.2699 129.12 68.1699 128.61Z" fill="black"/>
<path d="M34.14 196.57C20.19 196.57 8.20996 204.98 2.95996 217C9.96996 208.24 20.63 202.65 32.58 202.65H68.16V196.58H34.13L34.14 196.57Z" fill="black"/>
</g>
</g>
</svg>
