<svg width="2629" height="668" viewBox="0 0 2629 668" fill="none" xmlns="http://www.w3.org/2000/svg">
<rect width="2629" height="668" fill="white"/>
<path d="M418.519 333.286L419.951 331.853L418.518 330.42L352.753 264.677C334.672 246.603 318.238 229.951 306.327 217.684C300.37 211.55 295.551 206.518 292.225 202.957C290.56 201.173 289.281 199.772 288.424 198.789C288.224 198.56 288.051 198.358 287.905 198.184C288.04 197.987 288.206 197.758 288.406 197.494C289.149 196.515 290.239 195.219 291.59 193.699C294.285 190.667 297.922 186.851 301.653 183.105C305.386 179.359 309.187 175.708 312.207 173.003C313.721 171.647 315.013 170.553 315.987 169.808C316.242 169.613 316.465 169.45 316.656 169.317C316.912 169.535 317.223 169.806 317.589 170.132C318.791 171.202 320.511 172.792 322.698 174.856C327.07 178.98 333.265 184.952 340.831 192.329C355.962 207.083 376.551 227.436 398.948 249.827C421.345 272.219 441.703 292.802 456.46 307.926C463.84 315.489 469.813 321.681 473.938 326.048C476.003 328.234 477.594 329.952 478.664 331.152C478.913 331.431 479.13 331.678 479.315 331.893C479.09 332.156 478.82 332.466 478.503 332.823C477.334 334.134 475.606 335.997 473.389 338.339C468.958 343.02 462.617 349.568 454.991 357.359C439.74 372.939 419.375 393.464 398.923 413.909C378.472 434.353 357.938 454.711 342.353 469.955C334.559 477.579 328.009 483.917 323.326 488.347C320.983 490.564 319.12 492.291 317.807 493.459C317.353 493.863 316.975 494.19 316.673 494.444C316.479 494.309 316.252 494.144 315.991 493.944C315.017 493.199 313.726 492.105 312.212 490.75C309.192 488.045 305.39 484.395 301.658 480.651C297.925 476.907 294.287 473.093 291.591 470.064C290.239 468.545 289.148 467.25 288.405 466.273C288.207 466.012 288.042 465.785 287.907 465.59C288.053 465.416 288.225 465.217 288.423 464.989C289.281 464.007 290.559 462.606 292.225 460.823C295.551 457.262 300.37 452.229 306.327 446.092C318.238 433.822 334.673 417.161 352.753 399.074L418.519 333.286ZM169.075 315.641L183.284 301.348L198.585 316.571L213.89 331.796L198.669 347.096L183.446 362.399L169.156 348.191C164.852 343.914 160.95 339.808 158.133 336.644C156.721 335.059 155.602 333.733 154.846 332.752C154.607 332.442 154.414 332.18 154.266 331.964C154.414 331.747 154.606 331.483 154.845 331.17C155.598 330.183 156.711 328.85 158.115 327.256C160.916 324.075 164.796 319.945 169.075 315.641ZM234.366 413.399L220.698 399.64L252.119 368.178C261.162 359.122 269.388 350.662 275.358 344.324C278.341 341.158 280.773 338.508 282.465 336.574C283.307 335.61 283.987 334.801 284.464 334.184C284.699 333.88 284.913 333.587 285.076 333.327C285.156 333.199 285.25 333.04 285.33 332.865C285.381 332.754 285.558 332.37 285.558 331.876C285.558 331.382 285.382 330.999 285.331 330.888C285.25 330.714 285.156 330.553 285.076 330.424C284.912 330.165 284.699 329.872 284.464 329.568C283.987 328.95 283.307 328.141 282.464 327.178C280.772 325.243 278.34 322.593 275.357 319.426C269.386 313.088 261.16 304.627 252.117 295.572L220.697 264.108L235.395 249.323L250.084 234.547L298.762 283.194L347.442 331.846L299.82 379.498C286.336 392.991 273.847 405.252 264.59 414.137C259.96 418.581 256.147 422.171 253.427 424.646C252.063 425.886 250.991 426.829 250.235 427.456C250.14 427.535 250.052 427.607 249.971 427.673C249.787 427.545 249.574 427.39 249.331 427.205C248.372 426.478 247.082 425.4 245.541 424.038C242.467 421.32 238.491 417.554 234.366 413.399Z" fill="black"/>
<path d="M651.773 472.333L570.236 195.268H605.858L618.526 239.599L638.315 310.052C650.583 352.008 661.665 390.797 671.165 427.211H673.541C682.644 392.776 693.727 353.987 706.392 310.844L727.371 236.432L738.85 195.268H776.056L787.535 236.432L808.51 310.844C821.179 353.987 831.865 392.776 841.364 427.211H843.736C854.029 389.214 867.885 339.342 885.694 277.2L896.38 239.599L909.045 195.268H944.668L863.133 472.333H823.158L758.639 246.327H756.267L691.748 472.333H651.773ZM958.528 378.923C971.986 368.631 991.378 363.09 1016.71 363.09C1037.3 363.09 1052.34 362.694 1062.63 361.507C1072.52 360.716 1080.44 357.945 1085.98 353.195C1091.52 348.841 1094.69 341.717 1094.69 331.426C1094.69 320.739 1089.93 311.24 1080.44 302.532C1070.94 293.824 1055.9 289.47 1035.32 289.47C1015.13 289.47 999.692 295.011 989.404 306.094C978.713 317.177 972.383 330.238 970.801 346.071H939.136C939.136 331.03 943.09 316.781 951.007 304.115C958.925 291.449 970.007 281.158 984.651 273.242C999.296 265.722 1016.71 261.764 1036.5 261.764C1067.77 261.764 1090.73 269.284 1104.98 283.533C1119.23 298.178 1126.35 317.177 1126.35 340.134V472.333H1096.27L1094.69 404.254H1093.1C1090.33 429.982 1080.83 448.981 1064.6 460.855C1048.38 472.729 1029.78 478.666 1008.4 478.666C987.027 478.666 970.404 473.916 957.739 464.021C945.069 454.126 938.739 440.273 938.739 422.066C938.739 403.858 945.069 389.214 958.528 378.923ZM1016.32 451.751C1031.36 451.751 1045.21 448.585 1057.08 441.46C1068.96 434.731 1078.46 426.024 1084.79 414.941C1091.13 404.254 1094.69 393.172 1094.69 381.693V350.82H1093.1C1091.52 358.737 1088.35 365.07 1083.6 369.423C1078.85 374.173 1070.94 377.735 1059.86 380.11C1048.77 382.485 1032.54 384.068 1011.96 384.464C999.692 385.256 990.193 388.422 983.069 394.359C975.945 400.296 972.383 408.213 972.383 417.712C972.383 440.668 987.027 451.751 1016.32 451.751ZM1225.72 472.333L1142.21 268.097H1175.85L1204.35 340.925C1214.24 366.257 1226.91 397.13 1241.95 434.336H1243.53C1258.57 397.13 1270.85 366.257 1281.14 340.925L1309.64 268.097H1343.28L1259.76 472.333H1225.72ZM1544.07 375.36H1378.63C1378.63 399.504 1385.35 418.107 1398.41 431.169C1411.08 444.627 1427.7 450.96 1448.29 450.96C1464.52 450.96 1477.97 446.606 1489.06 437.106C1499.74 427.607 1506.87 415.733 1510.03 400.692H1542.49C1539.32 424.44 1529.43 443.043 1512.01 457.292C1494.6 471.541 1473.62 478.666 1448.29 478.666C1417.41 478.666 1392.87 469.563 1374.67 450.96C1356.06 432.357 1346.96 405.046 1346.96 369.423C1346.96 347.258 1350.92 327.864 1359.63 311.636C1367.94 295.407 1379.81 283.137 1394.85 274.43C1409.89 266.118 1427.7 261.764 1447.5 261.764C1466.1 261.764 1482.72 266.118 1497.76 274.826C1512.41 283.533 1523.89 295.407 1531.8 310.448C1539.72 325.489 1544.07 342.113 1544.07 360.32V375.36ZM1399.21 306.094C1386.54 317.177 1379.81 333.009 1378.63 353.195H1511.61C1510.03 333.801 1503.7 318.364 1492.22 306.886C1480.74 295.407 1465.31 289.47 1446.31 289.47C1427.31 289.47 1411.48 295.011 1399.21 306.094ZM1740.93 195.268H1772.6V472.333H1742.51L1740.93 413.754H1739.35C1734.99 433.544 1725.89 449.772 1712.43 461.646C1698.58 473.521 1682.35 479.458 1664.14 479.458C1645.94 479.458 1629.71 475.104 1615.85 466C1601.61 456.897 1590.92 444.231 1583.4 427.607C1575.48 411.379 1571.92 392.38 1571.92 370.611C1571.92 349.237 1575.48 330.238 1583.4 313.614C1590.92 297.386 1601.61 284.72 1615.85 275.617C1629.71 266.513 1645.94 261.764 1664.14 261.764C1682.35 261.764 1698.58 268.097 1712.43 279.971C1725.89 291.845 1734.99 307.677 1739.35 327.468H1740.93V195.268ZM1708.08 441.46C1718.37 435.127 1726.29 426.815 1732.22 416.128C1737.77 405.442 1740.93 393.567 1740.93 380.901V360.32C1740.93 347.654 1737.77 336.176 1732.22 325.489C1726.29 314.802 1718.37 306.094 1708.08 299.761C1697.79 293.429 1685.92 290.262 1672.46 290.262C1651.87 290.262 1635.25 297.782 1622.59 312.427C1609.92 327.072 1603.98 346.467 1603.98 370.611C1603.98 395.151 1609.92 414.545 1622.59 429.19C1635.25 443.835 1651.87 450.96 1672.46 450.96C1685.92 450.96 1697.79 447.793 1708.08 441.46ZM1827.84 378.923C1841.29 368.631 1860.69 363.09 1886.02 363.09C1906.6 363.09 1921.64 362.694 1931.93 361.507C1941.83 360.716 1949.74 357.945 1955.28 353.195C1960.83 348.841 1963.99 341.717 1963.99 331.426C1963.99 320.739 1959.24 311.24 1949.74 302.532C1940.24 293.824 1925.2 289.47 1904.62 289.47C1884.43 289.47 1869 295.011 1858.71 306.094C1848.02 317.177 1841.69 330.238 1840.1 346.071H1808.44C1808.44 331.03 1812.4 316.781 1820.32 304.115C1828.23 291.449 1839.32 281.158 1853.96 273.242C1868.6 265.722 1886.02 261.764 1905.81 261.764C1937.08 261.764 1960.04 269.284 1974.28 283.533C1988.53 298.178 1995.65 317.177 1995.65 340.134V472.333H1965.58L1963.99 404.254H1962.41C1959.64 429.982 1950.14 448.981 1933.91 460.855C1917.68 472.729 1899.08 478.666 1877.71 478.666C1856.33 478.666 1839.71 473.916 1827.04 464.021C1814.38 454.126 1808.04 440.273 1808.04 422.066C1808.04 403.858 1814.38 389.214 1827.84 378.923ZM1885.62 451.751C1900.67 451.751 1914.52 448.585 1926.39 441.46C1938.26 434.731 1947.76 426.024 1954.1 414.941C1960.43 404.254 1963.99 393.172 1963.99 381.693V350.82H1962.41C1960.83 358.737 1957.66 365.07 1952.91 369.423C1948.16 374.173 1940.24 377.735 1929.16 380.11C1918.08 382.485 1901.85 384.068 1881.27 384.464C1869 385.256 1859.5 388.422 1852.37 394.359C1845.25 400.296 1841.69 408.213 1841.69 417.712C1841.69 440.668 1856.33 451.751 1885.62 451.751ZM2055.21 460.063C2038.58 447.793 2029.88 430.378 2028.69 407.421H2061.14C2062.33 421.67 2068.27 432.357 2078.96 439.877C2089.64 447.397 2104.29 450.96 2122.89 450.96C2138.72 450.96 2151.39 448.189 2160.89 442.252C2170.39 436.315 2175.14 428.003 2175.14 417.712C2175.14 410.587 2172.76 404.65 2168.41 400.296C2164.05 396.338 2156.93 392.776 2146.64 390.401L2086.48 376.548C2069.85 372.986 2057.18 366.653 2047.69 357.549C2038.19 348.841 2033.83 336.967 2033.83 322.718C2033.83 304.115 2040.96 289.47 2056 278.388C2071.04 267.305 2091.23 261.764 2117.35 261.764C2144.27 261.764 2166.03 268.493 2181.86 281.158C2197.7 293.824 2205.62 311.24 2205.62 333.009H2173.16C2173.16 319.551 2168.01 309.261 2158.12 301.344C2147.83 293.428 2134.37 289.47 2117.35 289.47C2101.52 289.47 2088.85 292.637 2079.35 298.178C2069.85 304.115 2065.5 312.031 2065.5 321.531C2065.5 328.259 2067.88 334.197 2073.02 338.946C2078.16 343.696 2085.29 347.258 2094 349.237L2152.97 362.694C2171.97 367.444 2185.82 373.777 2194.53 382.089C2203.24 390.401 2207.6 401.88 2207.6 416.524C2207.6 435.523 2199.68 450.96 2184.64 462.042C2169.2 473.125 2148.62 478.666 2122.89 478.666C2094 478.666 2071.44 472.729 2055.21 460.063ZM2399.6 282.346C2413.06 296.199 2419.79 314.406 2419.79 336.571V472.333H2388.13V346.862C2388.13 330.238 2382.98 316.781 2373.09 306.49C2362.8 296.199 2349.73 291.053 2333.51 291.053C2314.51 291.053 2299.47 298.178 2288.38 312.031C2276.9 326.28 2271.36 344.487 2271.36 367.048V472.333H2239.31V195.268H2271.36V327.468H2273.74C2276.12 307.677 2284.03 291.845 2297.49 279.971C2310.55 268.097 2326.78 261.764 2346.17 261.764C2368.34 261.764 2386.15 268.889 2399.6 282.346Z" fill="black"/>
</svg>
