<svg width="1600" height="360" viewBox="0 0 1600 360" fill="none" xmlns="http://www.w3.org/2000/svg">
<rect width="1600" height="360" fill="#252B36"/>
<g clip-path="url(#clip0_1_7)">
<path d="M751.528 291V138.365H705.883C705.728 138.365 705.566 138.365 705.397 138.373C697.193 138.658 690.6 145.402 690.523 153.604C690.523 153.65 690.523 153.696 690.523 153.735V275.884C690.523 276.139 690.539 276.424 690.562 276.74C691.256 284.602 697.841 290.63 705.728 290.969C706.06 290.985 706.376 290.992 706.669 290.992H751.528V291Z" fill="#E72264"/>
<path d="M939.694 290.923C948.198 290.283 954.93 283.284 954.991 274.751C954.991 274.697 954.991 274.643 954.991 274.59V153.912C954.991 153.866 954.991 153.812 954.991 153.766C954.953 145.333 948.09 138.457 939.655 138.373C939.594 138.373 939.532 138.373 939.47 138.373H893.986V291.008H937.789C938.383 291.008 939.023 290.977 939.694 290.931V290.923Z" fill="#E72264"/>
<path d="M742.97 138.373H790.774C795.462 138.373 802.093 142.165 805.594 146.851L906.963 282.513C910.464 287.2 909.5 290.992 904.82 290.992H857.015C852.327 290.992 845.696 287.2 842.195 282.513L740.819 146.851C737.318 142.173 738.282 138.373 742.962 138.373H742.97Z" fill="#E72264"/>
<path d="M901.034 138.373H853.229C848.541 138.373 841.91 142.165 838.41 146.851L737.04 282.513C733.54 287.2 734.504 290.992 739.184 290.992H786.989C791.677 290.992 798.308 287.2 801.808 282.513L903.177 146.851C906.678 142.173 905.714 138.373 901.034 138.373Z" fill="#E72264"/>
<path d="M924.936 69C941.113 69 954.236 82.1114 954.236 98.2906C954.236 114.47 941.12 127.581 924.936 127.581C908.752 127.581 895.636 114.47 895.636 98.2906C895.636 82.1114 908.752 69 924.936 69Z" fill="#E72264"/>
<path d="M721.381 69C737.557 69 750.68 82.1114 750.68 98.2906C750.68 114.47 737.565 127.581 721.381 127.581C705.196 127.581 692.081 114.47 692.081 98.2906C692.081 82.1114 705.196 69 721.381 69Z" fill="#E72264"/>
<path d="M1052.93 69H1006.67C990.058 69 976.596 82.4583 976.596 99.0615V145.31C976.596 161.913 990.058 175.371 1006.67 175.371H1052.93C1069.54 175.371 1083 161.913 1083 145.31V99.0615C1083 82.4583 1069.54 69 1052.93 69ZM1022.37 99.3235V130.541C1022.37 134.75 1021.53 138.403 1019.85 141.494C1018.17 144.585 1015.77 146.982 1012.66 148.686C1009.54 150.389 1005.85 151.245 1001.59 151.245C997.962 151.245 994.831 150.59 992.186 149.287C989.542 147.985 987.321 146.158 985.509 143.814C985.509 143.814 980.459 138.365 985.085 134.519C989.812 130.587 993.906 135.736 993.906 135.736C994.862 137.07 995.995 138.072 997.306 138.735C998.609 139.405 1000.09 139.737 1001.75 139.737C1003.29 139.737 1004.65 139.421 1005.83 138.781C1007 138.141 1007.93 137.186 1008.63 135.906C1009.32 134.626 1009.67 133.054 1009.67 131.189V99.3312C1009.67 99.3312 1009.54 92.9027 1015.93 92.9027C1022.31 92.9027 1022.38 99.3312 1022.38 99.3312L1022.37 99.3235ZM1067.8 144.832C1064.3 148.285 1059.16 150.366 1052.37 151.075C1047.71 151.569 1043.64 151.245 1040.17 150.112C1036.7 148.979 1033.45 147.013 1030.42 144.223C1030.42 144.223 1025.73 140.184 1029.51 135.112C1032.35 131.297 1037.69 135.259 1037.69 135.259C1039.71 137.139 1041.87 138.527 1044.19 139.436C1046.51 140.346 1049.13 140.646 1052.05 140.338C1054.65 140.068 1056.62 139.359 1057.98 138.226C1059.34 137.093 1059.92 135.675 1059.75 133.979C1059.59 132.499 1059 131.327 1057.97 130.472C1056.95 129.616 1055.6 128.93 1053.93 128.406C1052.27 127.882 1050.48 127.419 1048.56 127.003C1046.64 126.587 1044.69 126.055 1042.72 125.408C1040.75 124.76 1038.92 123.905 1037.22 122.849C1035.53 121.793 1034.11 120.367 1032.95 118.555C1031.79 116.744 1031.07 114.439 1030.78 111.633C1030.41 108.134 1030.93 105.051 1032.33 102.384C1033.75 99.7166 1035.89 97.5738 1038.77 95.9551C1041.66 94.3364 1045.01 93.3267 1048.83 92.9258C1052.81 92.5096 1056.48 92.8179 1059.86 93.8508C1063.24 94.8914 1066.11 96.4638 1068.48 98.5681C1068.48 98.5681 1071.8 101.351 1069.11 106.137C1067.02 109.86 1061.15 107.625 1061.15 107.625C1059.27 106.053 1057.42 104.935 1055.61 104.272C1053.8 103.609 1051.83 103.386 1049.71 103.609C1047.54 103.84 1045.86 104.434 1044.67 105.382C1043.48 106.338 1042.98 107.587 1043.14 109.12C1043.28 110.5 1043.88 111.572 1044.93 112.35C1045.97 113.121 1047.31 113.745 1048.94 114.216C1050.57 114.686 1052.37 115.14 1054.31 115.58C1056.26 116.019 1058.22 116.551 1060.18 117.175C1062.15 117.8 1063.98 118.694 1065.65 119.858C1067.32 121.022 1068.76 122.533 1069.95 124.39C1071.13 126.248 1071.88 128.66 1072.2 131.628C1072.76 136.985 1071.3 141.386 1067.8 144.832Z" fill="#E72264"/>
<path d="M599.633 69.2621C553.995 69.2621 517 106.245 517 151.869C517 152.764 517.015 153.65 517.046 154.536V233.922C517.046 233.922 517.046 233.929 517.046 233.937V242.008C517.046 242.008 517.046 242.008 517.054 242V261.956C517.054 262.11 517.046 262.257 517.046 262.411C517.046 262.565 517.054 262.719 517.062 262.873V263.243H517.069C517.509 278.575 530.069 290.869 545.513 290.869C560.957 290.869 573.649 278.575 574.088 263.243V233.937H597.697C598.337 233.953 598.985 233.96 599.625 233.96C645.263 233.96 682.258 197.493 682.258 151.869C682.258 106.245 645.271 69.2621 599.633 69.2621ZM599.633 176.921C594.582 176.921 581.783 176.921 576.471 176.921H574.111V151.877C574.111 137.841 585.592 126.456 599.633 126.456C613.673 126.456 625.062 137.841 625.062 151.877C625.062 165.914 613.673 176.928 599.633 176.928V176.921Z" fill="#E72264"/>
<path opacity="0.15" d="M544.796 233.953H574.05V263.251H573.918C573.479 278.582 560.919 290.877 545.475 290.877C530.031 290.877 517.463 278.582 517.023 263.251H517.015V262.881C517.015 262.727 517 262.573 517 262.418C517 262.264 517.008 262.118 517.008 261.964V259.898C517.887 246.185 530.833 233.953 544.788 233.953H544.796Z" fill="#1D1D1B"/>
<g opacity="0.05">
<path opacity="0.5" d="M517.046 198.716V233.943C517.046 202.909 543.131 177.364 574.096 176.94V165.701C551.08 168.121 530.701 180.509 517.046 198.716Z" fill="black"/>
<path d="M517.093 260.451C523.816 255.518 531.974 252.612 540.779 252.612H574.103V233.943H545.552C530.47 233.943 518.141 245.636 517.093 260.451Z" fill="black"/>
</g>
<g opacity="0.05">
<path opacity="0.5" d="M574.096 176.94V166.734C550.887 169.008 530.408 181.665 517.046 200.25V233.943C517.046 202.909 543.131 177.364 574.096 176.94Z" fill="black"/>
<path d="M545.552 233.943C530.879 233.943 518.804 245.019 517.2 259.264C523.916 254.022 532.213 250.924 541.211 250.924H574.096V233.951H545.544L545.552 233.943Z" fill="black"/>
</g>
<g opacity="0.05">
<path opacity="0.5" d="M574.096 176.94V167.759C550.679 169.879 530.069 182.844 517.046 201.845V233.935C517.046 202.901 543.131 177.356 574.096 176.932V176.94Z" fill="black"/>
<path d="M545.552 233.943C531.287 233.943 519.483 244.403 517.355 258.069C524.032 252.527 532.467 249.22 541.643 249.22H574.096V233.943H545.544H545.552Z" fill="black"/>
</g>
<g opacity="0.05">
<path opacity="0.5" d="M574.096 176.94V168.792C550.44 170.75 529.691 184.07 517.046 203.533V233.943C517.046 202.909 543.131 177.364 574.096 176.94Z" fill="black"/>
<path d="M545.552 233.943C531.696 233.943 520.154 243.817 517.563 256.905C524.186 251.055 532.737 247.525 542.082 247.525H574.103V233.943H545.552Z" fill="black"/>
</g>
<g opacity="0.05">
<path opacity="0.5" d="M574.096 176.94V169.833C550.163 171.605 529.252 185.342 517.046 205.314V233.943C517.046 202.909 543.131 177.364 574.096 176.94Z" fill="black"/>
<path d="M545.552 233.943C532.112 233.943 520.855 243.231 517.825 255.726C524.356 249.575 533.015 245.821 542.514 245.821H574.096V233.935H545.544L545.552 233.943Z" fill="black"/>
</g>
<g opacity="0.05">
<path opacity="0.5" d="M574.096 176.94V170.873C549.846 172.461 528.735 186.668 517.046 207.226V233.943C517.046 202.909 543.131 177.364 574.096 176.94Z" fill="black"/>
<path d="M545.552 233.943C532.536 233.943 521.572 242.653 518.141 254.547C524.556 248.095 533.3 244.125 542.953 244.125H574.103V233.943H545.552Z" fill="black"/>
</g>
<g opacity="0.05">
<path opacity="0.5" d="M574.096 176.94V171.921C549.476 173.301 528.126 188.078 517.046 209.299V233.943C517.046 202.909 543.131 177.364 574.096 176.94Z" fill="black"/>
<path d="M545.552 233.943C532.976 233.943 522.305 242.083 518.504 253.375C524.772 246.63 533.601 242.429 543.377 242.429H574.096V233.943H545.544H545.552Z" fill="black"/>
</g>
<g opacity="0.05">
<path opacity="0.5" d="M574.096 176.94V172.978C549.021 174.134 527.386 189.605 517.046 211.604V233.943C517.046 202.909 543.131 177.364 574.096 176.94Z" fill="black"/>
<path d="M545.552 233.943C533.408 233.943 523.045 241.535 518.92 252.226C525.019 245.181 533.901 240.734 543.817 240.734H574.104V233.943H545.552Z" fill="black"/>
</g>
<g opacity="0.05">
<path opacity="0.5" d="M574.096 176.94V174.057C548.443 174.974 526.438 191.316 517.046 214.279V233.943C517.046 202.909 543.131 177.364 574.096 176.94Z" fill="black"/>
<path d="M545.552 233.943C533.847 233.943 523.793 240.996 519.398 251.078C525.281 243.732 534.225 239.038 544.256 239.038H574.103V233.943H545.552Z" fill="black"/>
</g>
</g>
<defs>
<clipPath id="clip0_1_7">
<rect width="566" height="222.008" fill="white" transform="translate(517 69)"/>
</clipPath>
</defs>
</svg>
